<svg width="750" height="500" xmlns="http://www.w3.org/2000/svg">

 <g>
  <title>Layer 1</title>
  <g id="freepik--Character--inject-9">
   <path id="svg_1" fill="#eb9481" d="m308.25,420.09c-2.33,0.79 -69.14,1 -71.7,-0.58c-1,-0.6 -1.57,-10.33 -2,-22.11c-0.09,-2.54 -0.16,-5.17 -0.22,-7.83l-5.33,-35.64l44.67,-0.29l4.21,35.65l-0.17,7.84s25.62,11.35 28.24,13.41s4.63,8.76 2.3,9.55z"/>
   <path id="svg_2" fill="#fff" d="m308.25,420.09c-2.33,0.79 -69.14,1 -71.7,-0.58c-1.18,-0.74 -1.82,-14.95 -2.18,-29.94l43.46,-0.28l-0.17,7.84s25.62,11.35 28.24,13.41s4.68,8.76 2.35,9.55z"/>
   <path id="svg_3" fill="#a6a6a6" d="m308.25,420.09c-2.33,0.79 -69.14,1 -71.7,-0.58c-1,-0.6 -1.57,-10.33 -2,-22.11l43.07,-0.27s25.62,11.35 28.24,13.41s4.72,8.76 2.39,9.55z"/>
   <path id="svg_4" fill="#263238" d="m307.28,417.42c-11.2,-0.24 -56.4,-0.13 -67.49,0.49c-0.09,0 -0.09,0.06 0,0.07c11.1,0.47 56.3,0 67.49,-0.38c0.24,-0.01 0.24,-0.18 0,-0.18z"/>
   <path id="svg_5" fill="#263238" d="m301.59,408.15a9,9 0 0 0 -6.69,2.76a8.66,8.66 0 0 0 -2.48,6c0,0.07 0.12,0.07 0.13,0a10.4,10.4 0 0 1 9,-8.6a0.07,0.07 0 0 0 0.04,-0.16z"/>
   <path id="svg_6" fill="#263238" d="m282,398.23c-4.48,-0.05 -9.67,1.55 -12.45,5.23c-0.1,0.14 0.1,0.29 0.23,0.22a62.24,62.24 0 0 1 12.3,-4.9a0.28,0.28 0 0 0 -0.08,-0.55z"/>
   <path id="svg_7" fill="#263238" d="m285.48,399.56c-4.49,0 -9.68,1.56 -12.45,5.23c-0.11,0.15 0.09,0.3 0.23,0.23a61.59,61.59 0 0 1 12.29,-4.91a0.28,0.28 0 0 0 -0.07,-0.55z"/>
   <path id="svg_8" fill="#263238" d="m288.94,400.9c-4.48,0 -9.67,1.55 -12.45,5.23c-0.1,0.14 0.1,0.29 0.23,0.22a62.24,62.24 0 0 1 12.3,-4.9a0.28,0.28 0 0 0 -0.08,-0.55z"/>
   <path id="svg_9" fill="#263238" d="m292.41,402.24c-4.49,-0.05 -9.68,1.55 -12.45,5.23c-0.11,0.14 0.1,0.29 0.23,0.22a62,62 0 0 1 12.3,-4.9a0.28,0.28 0 0 0 -0.08,-0.55z"/>
   <path id="svg_10" fill="#263238" d="m242.61,407.26c-5,0 -5,7.85 0,7.82s5.04,-7.85 0,-7.82z"/>
   <path id="svg_11" fill="#263238" d="m286.81,386.25c-2.27,-1.88 -5.13,0 -6.52,1.93a23.58,23.58 0 0 0 -4,11.48c0,0.09 0.07,0.13 0.14,0.13a0.54,0.54 0 0 0 0.81,0.35c3.18,-2.21 6.86,-4.19 9.27,-7.32c1.37,-1.82 2.49,-4.82 0.3,-6.57zm-5.46,9.54c-1.54,1.13 -3.13,2.18 -4.63,3.37c0.8,-2.24 1.49,-4.5 2.51,-6.66a25.05,25.05 0 0 1 1.62,-3c1,-1.49 5.36,-5.25 5.82,-0.38c0.26,2.67 -3.49,5.33 -5.32,6.67z"/>
   <path id="svg_12" fill="#263238" d="m265.13,401.36c3.9,0.58 7.93,-0.54 11.76,-1.15a0.55,0.55 0 0 0 0.33,-0.82a0.12,0.12 0 0 0 0,-0.19a23.5,23.5 0 0 0 -10.86,-5.47c-2.36,-0.45 -5.7,0.2 -6,3.13c-0.36,2.76 2.49,4.14 4.77,4.5zm-2.72,-2.54c-3,-3.84 2.73,-4.17 4.45,-3.77a25.58,25.58 0 0 1 3.28,1.06a69.56,69.56 0 0 1 6.41,3.05c-1.9,0.19 -3.77,0.53 -5.66,0.79c-2.26,0.3 -6.8,0.98 -8.48,-1.13z"/>
   <path id="svg_13" fill="#37474f" d="m163.32,189.2s51.87,88.24 53.26,94.44c2.13,9.52 13.42,103.53 13.42,103.53l54,-1s-9.3,-82.89 -18.11,-110.2c-6.34,-19.67 -52.12,-84.91 -52.12,-84.91l-50.45,-1.86z"/>
   <path id="svg_14" fill="#263238" d="m279.09,377.93c-7.75,-0.06 -35.22,-0.37 -45.54,0.59c-0.08,0 -0.07,0.14 0,0.15c3.55,0.51 37.78,-0.28 45.53,-0.53a0.11,0.11 0 1 0 0.01,-0.21z"/>
   <path id="svg_15" fill="#263238" d="m172.17,197.3c3.4,5.33 7,10.55 10.46,15.84s6.94,10.58 10.37,15.86q10.26,16 20,32.21a98.63,98.63 0 0 1 8.1,15.79a96.75,96.75 0 0 1 4.55,16.94c1.06,5.79 1.76,11.64 2.41,17.49q1,9.33 2.09,18.67q2.13,19.11 4.27,38.22c0.17,1.56 0.34,3.12 0.5,4.69c0,0.23 -0.39,0.27 -0.42,0c-1.59,-12.65 -2.91,-25.35 -4.35,-38q-1.08,-9.47 -2.15,-18.93c-0.67,-5.87 -1.31,-11.75 -2.22,-17.58a115,115 0 0 0 -3.8,-17a81.65,81.65 0 0 0 -7.46,-16.5c-6.25,-10.79 -12.87,-21.39 -19.49,-32s-13.42,-21.31 -20.4,-31.79c-0.86,-1.29 -1.73,-2.58 -2.63,-3.85c-0.07,-0.07 0.11,-0.16 0.17,-0.06z"/>
   <path id="svg_16" fill="#eb9481" d="m180.32,425.29c-2.46,-0.15 -66,-25.89 -67.76,-28.33a0.84,0.84 0 0 1 -0.1,-0.47c0,-2.19 4.41,-9.83 8.09,-19.87c0.23,-0.64 1.87,-3.62 4.14,-7.63c6.31,-10.99 17.31,-29.92 17.31,-29.92l41.53,16.5l-19.88,29.75l-3.09,7.2s19.49,20.15 21.13,23s1.08,9.91 -1.37,9.77z"/>
   <path id="svg_17" fill="#fff" d="m180.32,425.29c-2.46,-0.15 -66,-25.89 -67.76,-28.33a0.84,0.84 0 0 1 -0.1,-0.47c0,-2.19 4.41,-9.83 8.09,-19.87c0.23,-0.64 1.87,-3.62 4.14,-7.63l39,16.33l-3.09,7.2s19.49,20.15 21.13,23s1.04,9.91 -1.41,9.77z"/>
   <path id="svg_18" fill="#a6a6a6" d="m180.32,425.29c-2.46,-0.15 -66,-25.89 -67.76,-28.33c-0.68,-0.93 2.16,-9.6 8,-20.34l40,15.91s19.49,20.13 21.14,23s1.07,9.9 -1.38,9.76z"/>
   <path id="svg_19" fill="#263238" d="m180.42,422.45c-10.29,-4.42 -52.23,-21.28 -62.74,-24.86c-0.09,0 -0.11,0 0,0.06c10.11,4.6 52.18,21.12 62.7,25c0.2,0.05 0.26,-0.11 0.04,-0.2z"/>
   <path id="svg_20" fill="#263238" d="m178.62,411.72a9,9 0 0 0 -7.24,0a8.7,8.7 0 0 0 -4.54,4.62c0,0.06 0.09,0.11 0.12,0.05a10.41,10.41 0 0 1 11.61,-4.59a0.07,0.07 0 0 0 0.05,-0.08z"/>
   <path id="svg_21" fill="#263238" d="m164.19,395.18c-4.13,-1.73 -9.55,-2.19 -13.5,0.18c-0.15,0.09 0,0.3 0.13,0.29a62.34,62.34 0 0 1 13.24,0.07a0.28,0.28 0 0 0 0.13,-0.54z"/>
   <path id="svg_22" fill="#263238" d="m166.9,397.72c-4.13,-1.73 -9.55,-2.19 -13.5,0.18c-0.15,0.09 0,0.3 0.13,0.29a61.69,61.69 0 0 1 13.24,0.07a0.28,0.28 0 0 0 0.13,-0.54z"/>
   <path id="svg_23" fill="#263238" d="m169.62,400.26c-4.14,-1.73 -9.56,-2.19 -13.5,0.18c-0.16,0.09 0,0.3 0.12,0.29a61.69,61.69 0 0 1 13.24,0.07a0.28,0.28 0 0 0 0.14,-0.54z"/>
   <path id="svg_24" fill="#263238" d="m172.33,402.8c-4.14,-1.73 -9.55,-2.19 -13.5,0.17c-0.16,0.1 0,0.31 0.12,0.3a61.69,61.69 0 0 1 13.24,0.07a0.28,0.28 0 0 0 0.14,-0.54z"/>
   <path id="svg_25" fill="#263238" d="m124.28,388.77c-4.67,-1.86 -7.57,5.41 -2.88,7.27s7.6,-5.41 2.88,-7.27z"/>
   <path id="svg_26" fill="#263238" d="m173.14,385.88c-1.41,-2.59 -4.74,-1.95 -6.77,-0.66a23.52,23.52 0 0 0 -8,9.13a0.12,0.12 0 0 0 0.08,0.17c0,0.33 0.22,0.72 0.61,0.64c3.79,-0.87 7.94,-1.32 11.34,-3.32c1.95,-1.16 4.07,-3.51 2.74,-5.96zm-8.65,6.79c-1.85,0.47 -3.71,0.85 -5.54,1.39a69.94,69.94 0 0 1 4.81,-5.23a25.34,25.34 0 0 1 2.65,-2.2c1.45,-1 6.93,-2.85 5.53,1.84c-0.77,2.59 -5.24,3.64 -7.45,4.2z"/>
   <path id="svg_27" fill="#263238" d="m147.37,391.75c3.4,2 7.55,2.47 11.33,3.35c0.39,0.09 0.65,-0.3 0.62,-0.64a0.11,0.11 0 0 0 0.08,-0.17a23.52,23.52 0 0 0 -8,-9.15c-2,-1.3 -5.35,-1.95 -6.77,0.63s0.75,4.81 2.74,5.98zm-1.56,-3.38c-1.39,-4.69 4.08,-2.83 5.53,-1.82a24.33,24.33 0 0 1 2.64,2.21a70,70 0 0 1 4.8,5.24c-1.83,-0.54 -3.69,-0.93 -5.54,-1.4c-2.24,-0.6 -6.67,-1.6 -7.43,-4.23z"/>
   <path id="svg_28" fill="#37474f" d="m166.88,383.66l-46.49,-18.77s57.64,-84.75 58.06,-91.06c0.38,-5.58 -24.94,-54.2 -25.93,-68.37c-1.08,-15.3 6.28,-27.13 14.38,-34.48l47.95,20.39s-5.06,8.09 -13,12.6c0,0 24.59,56.2 23.19,73.48s-58.16,106.21 -58.16,106.21z"/>
   <path id="svg_29" fill="#263238" d="m168.94,374.82c-6.72,-2.89 -4.75,-2.16 -11.51,-5c-3.3,-1.38 -25,-10.41 -28.34,-11.16c-0.07,0 -0.12,0.1 -0.05,0.14c2.89,1.77 24.77,10.42 28.1,11.74c6.81,2.68 4.88,1.84 11.72,4.44a0.1,0.1 0 1 0 0.08,-0.16z"/>
   <path id="svg_30" fill="#263238" d="m209.71,202.94a90.5,90.5 0 0 0 -14.6,4.74a0.15,0.15 0 1 0 0.1,0.29c4.9,-1.43 9.88,-2.77 14.7,-4.46c0.37,-0.13 0.18,-0.65 -0.2,-0.57z"/>
   <path id="svg_31" fill="#263238" d="m204,201a21.65,21.65 0 0 0 -1.23,2.57a5.91,5.91 0 0 0 -0.63,2.15c0,0.15 0.2,0.18 0.29,0.09a7.51,7.51 0 0 0 1.2,-2c0.41,-0.79 0.83,-1.57 1.22,-2.38c0.27,-0.59 -0.54,-0.97 -0.85,-0.43z"/>
   <path id="svg_32" fill="#263238" d="m204.6,196.46c0.3,-0.74 0.59,-1.47 0.9,-2.21s0.7,-1.5 1,-2.28c0,-0.12 0.24,0 0.19,0.09c-0.3,0.74 -0.49,1.52 -0.72,2.28s-0.49,1.52 -0.74,2.28c-0.47,1.41 -1,2.81 -1.65,4.18a5.3,5.3 0 0 0 2.3,-0.4a4.13,4.13 0 0 0 1.63,-2c0.42,-0.82 0.81,-1.66 1.24,-2.48a16.57,16.57 0 0 0 1.33,-2.79c0,-0.12 0.24,0 0.19,0.09a32.45,32.45 0 0 1 -2.55,5.91c-0.45,0.73 -0.8,1.5 -1.62,1.78a6.78,6.78 0 0 1 -2.73,0.19c-0.12,0 -0.26,0 -0.22,-0.18a47.4,47.4 0 0 1 1.45,-4.46z"/>
   <path id="svg_33" fill="#263238" d="m202.56,205.8c1.71,3.61 3.21,7.21 4.8,10.81s3,7.08 4.43,10.66c2.86,7.22 5.42,14.58 7.67,22c1.11,3.68 2.14,7.39 3.06,11.13a80,80 0 0 1 2.22,11.36a30,30 0 0 1 -1,11.4a66.68,66.68 0 0 1 -4.23,10.63c-1.05,2.16 -1.4,1.87 -0.9,0.78c1.43,-3.1 5.18,-12.49 4.91,-20.38a58.82,58.82 0 0 0 -1.74,-11.19q-1.31,-5.67 -2.95,-11.25c-2.13,-7.34 -4.66,-14.53 -7.26,-21.71c-1.46,-4 -3,-8 -4.5,-12s-3,-7.68 -4.68,-12.1c-0.05,-0.18 0.12,-0.25 0.17,-0.14z"/>
   <path id="svg_34" fill="#263238" d="m167.27,193.87c0.83,-0.31 2,0.2 2.84,0.34a24.28,24.28 0 0 0 3.29,0.33a23.78,23.78 0 0 0 3.27,-0.11a7,7 0 0 0 3.13,-0.83a15.93,15.93 0 0 0 4,-4.23a24.61,24.61 0 0 0 3.11,-5.46c0,-0.12 0.21,0 0.17,0.08c-0.35,1.11 -0.61,2.23 -1,3.32a20.15,20.15 0 0 1 -1.54,2.95a12.61,12.61 0 0 1 -4.14,4.7c-1.93,1.1 -4.41,1 -6.56,0.91a25.63,25.63 0 0 1 -3.71,-0.49c-0.88,-0.19 -2.36,-0.33 -2.92,-1.1a0.27,0.27 0 0 1 0.06,-0.41z"/>
   <path id="svg_35" fill="#263238" d="m133.66,356q11.46,-17.36 22.5,-35t21.78,-35.55c1.71,-2.85 3.68,-5.69 4.78,-8.85c1.2,-3.43 0.52,-6.76 -0.56,-10.12a171.63,171.63 0 0 0 -7.14,-18c-2.68,-5.91 -5.57,-11.72 -8.41,-17.55s-5.81,-11.59 -8,-17.67c-2,-5.81 -2.81,-11.83 -1.25,-17.85s4.92,-11.34 8.43,-16.35c0.92,-1.32 1.87,-2.63 2.8,-4c0.07,-0.1 0.22,0 0.15,0.12c-3.87,5.22 -7.64,10.75 -9.91,16.88a29.15,29.15 0 0 0 -1.92,9.45a30.59,30.59 0 0 0 1.51,9.67c1.88,6.08 4.85,11.83 7.62,17.55s5.73,11.64 8.46,17.53a187.64,187.64 0 0 1 7.5,18.19c0.93,2.75 2,5.63 1.92,8.58c-0.07,3.23 -1.61,6.14 -3.21,8.86c-7,11.85 -14.17,23.56 -21.47,35.2s-14.81,23.28 -22.41,34.8l-2.88,4.35c-0.15,0.18 -0.41,-0.03 -0.29,-0.24z"/>
   <path id="svg_36" fill="#eb9481" d="m217.51,137.47c4.33,9.5 26.2,22.59 36.44,24c7.36,1 29.74,1.36 37.41,0.19c9,-1.38 2.12,-25.63 -3.19,-25c-14.6,1.7 -27,3.6 -30.9,3.6c-4.76,0 -30.51,-8.26 -33.61,-9.43c-7.6,-2.83 -8.6,1.25 -6.15,6.64z"/>
   <path id="svg_37" fill="#101C5D" d="m217.65,140c5.48,8.11 23.69,21.37 23.69,21.37l2.53,-5.6l8.37,-18.52s-16.73,-5.25 -27.74,-7.65a24.12,24.12 0 0 0 -3.94,-0.56c-7.03,-0.38 -7.64,3.96 -2.91,10.96z"/>
   <path id="svg_38" fill="#263238" d="m217.65,140c5.48,8.11 23.69,21.37 23.69,21.37l2.53,-5.6c-6.79,-7.89 -17.28,-19.84 -23.31,-26.71c-7.03,-0.4 -7.64,3.94 -2.91,10.94z"/>
   <path id="svg_39" fill="#263238" d="m238.06,157.61c1.39,-3.41 7.57,-17.14 9.11,-20c0.1,-0.2 0.26,-0.18 0.17,0a201.71,201.71 0 0 1 -9.14,20c-0.04,0.12 -0.2,0.08 -0.14,0z"/>
   <path id="svg_40" fill="#eb9481" d="m285.49,136.91c8.88,-1.16 19.87,-3.15 29.18,0.8a5,5 0 0 1 2.49,2.13c4.2,1.7 4.66,4.19 4.66,4.19c3.43,2.78 3.55,5.4 3.55,5.4s4.92,2 4.17,5.22c-0.82,3.56 -7.56,0 -12.46,0.29c-11.25,0.7 -27,4.83 -30.25,5.35l-1.34,-23.38z"/>
   <path id="svg_41" fill="#263238" d="m304.78,147.39a72.4,72.4 0 0 1 9.88,0a71.88,71.88 0 0 1 10.6,2.15a0.09,0.09 0 0 0 0.06,-0.17a38.29,38.29 0 0 0 -20.54,-2.08c-0.16,-0.02 -0.16,0.11 0,0.1z"/>
   <path id="svg_42" fill="#263238" d="m303.38,140.67c3.23,0 8.91,0.16 18.41,3.47a0,0 0 0 0 0,-0.06a34.41,34.41 0 0 0 -18.43,-3.57c-0.18,0.02 -0.2,0.15 0.02,0.16z"/>
   <path id="svg_43" fill="#263238" d="m302.69,137c5.49,0.28 8.92,1.16 14.44,2.82a0,0 0 0 0 0,-0.06c-6.08,-2.54 -8.57,-2.78 -14.47,-3c-0.19,0.08 -0.18,0.24 0.03,0.24z"/>
   <path id="svg_44" fill="#eb9481" d="m303.58,156.64c-1.43,0.67 -1.08,1.42 1.65,2.05s14.08,0.82 13.68,4.78s-16.41,3.46 -20.88,2.06s-11.2,-5.24 -11.2,-5.24c3.17,-0.53 10.61,-2.54 16.75,-3.65z"/>
   <path id="svg_45" fill="#263238" d="m229.4,152.61c-0.07,1.71 -0.23,3.45 -0.47,5.18c0,-0.07 0,-0.13 0.07,-0.19c0.33,-0.9 0.66,-1.82 1.06,-2.69c0,0 0.1,0 0.09,0a14.42,14.42 0 0 1 -0.86,2.78c-0.18,0.43 -0.35,0.85 -0.54,1.27c-0.12,0.77 -0.26,1.53 -0.41,2.29c-0.3,1.43 -1.65,7.51 -2,8.54c-0.06,0.21 -0.32,0.16 -0.3,-0.08c0.07,-1.12 1.2,-7.45 1.43,-8.89a77.71,77.71 0 0 1 1.79,-8.25c0.05,-0.05 0.15,-0.01 0.14,0.04z"/>
   <path id="svg_46" fill="#101C5D" d="m219,198.08c-2.67,1.37 -6.11,3.5 -21.61,0.45c-1,-0.2 -1.94,-0.44 -2.92,-0.73c-14.53,-4.36 -32,-21.45 -32.95,-22.66c0,0 23.09,-37.43 52.62,-49.2c3.65,-1.45 9.69,1.35 13,4.84c1.19,1.25 3.78,10.44 2.79,17.88s-8.27,48.05 -10.93,49.42z"/>
   <path id="svg_47" fill="#fff" d="m216.92,148.32a11.34,11.34 0 0 1 -0.65,4.66a10.85,10.85 0 0 1 0.65,-4.66z"/>
   <path id="svg_48" fill="#fff" d="m206.85,173.81a10.33,10.33 0 0 1 -0.08,2.36a9.8,9.8 0 0 1 -0.57,2.3a9.85,9.85 0 0 1 0.08,-2.37a10.37,10.37 0 0 1 0.57,-2.29z"/>
   <path id="svg_49" fill="#fff" d="m189.74,154.54a11.35,11.35 0 0 1 -0.65,4.67a10.93,10.93 0 0 1 0.65,-4.67z"/>
   <path id="svg_50" fill="#fff" d="m223.51,172.51a10.39,10.39 0 0 1 -0.08,2.37a9.8,9.8 0 0 1 -0.57,2.3a9.85,9.85 0 0 1 0.08,-2.37a10.32,10.32 0 0 1 0.57,-2.3z"/>
   <path id="svg_51" fill="#fff" d="m201.54,151.24a10.33,10.33 0 0 1 2.36,0.07a9.83,9.83 0 0 1 2.3,0.58a11.27,11.27 0 0 1 -4.66,-0.65z"/>
   <path id="svg_52" fill="#fff" d="m182.12,169.65a11.34,11.34 0 0 1 4.66,0.65a10.85,10.85 0 0 1 -4.66,-0.65z"/>
   <path id="svg_53" fill="#fff" d="m205,189.58a11.27,11.27 0 0 1 4.66,0.65a10.91,10.91 0 0 1 -4.66,-0.65z"/>
   <path id="svg_54" fill="#fff" d="m176.13,182.34a11.34,11.34 0 0 1 4.66,0.65a10.91,10.91 0 0 1 -4.66,-0.65z"/>
   <path id="svg_55" fill="#fff" d="m216.77,130.4a11.34,11.34 0 0 1 4.66,0.65a11.34,11.34 0 0 1 -4.66,-0.65z"/>
   <path id="svg_56" fill="#fff" d="m211.12,136.78a9.75,9.75 0 0 1 -1.72,1.62a10.62,10.62 0 0 1 -2,1.22a10.17,10.17 0 0 1 1.7,-1.62a10.54,10.54 0 0 1 2.02,-1.22z"/>
   <path id="svg_57" fill="#fff" d="m180.33,154.91a10.11,10.11 0 0 1 -1.73,1.61a9.43,9.43 0 0 1 -2,1.22a10.53,10.53 0 0 1 1.73,-1.61a9.68,9.68 0 0 1 2,-1.22z"/>
   <path id="svg_58" fill="#fff" d="m218.78,163.09a10.17,10.17 0 0 1 -1.73,1.62a9.68,9.68 0 0 1 -2,1.22a10.17,10.17 0 0 1 1.73,-1.62a10.32,10.32 0 0 1 2,-1.22z"/>
   <path id="svg_59" fill="#fff" d="m193.88,178.77a10.17,10.17 0 0 1 -1.73,1.62a9.86,9.86 0 0 1 -2,1.22a10.17,10.17 0 0 1 1.73,-1.62a10.32,10.32 0 0 1 2,-1.22z"/>
   <path id="svg_60" fill="#fff" d="m228.32,141.67a10.17,10.17 0 0 1 -1.73,1.62a10.62,10.62 0 0 1 -2,1.22a10.17,10.17 0 0 1 1.73,-1.62a9.86,9.86 0 0 1 2,-1.22z"/>
   <path id="svg_61" fill="#fff" d="m227.8,159.84a10.17,10.17 0 0 1 -1.62,-1.73a9.61,9.61 0 0 1 -1.22,-2a9.75,9.75 0 0 1 1.62,1.72a10.93,10.93 0 0 1 1.22,2.01z"/>
   <path id="svg_62" fill="#fff" d="m172.3,172.36a10.17,10.17 0 0 1 -1.62,-1.73a10.32,10.32 0 0 1 -1.22,-2a10.17,10.17 0 0 1 1.62,1.73a9.86,9.86 0 0 1 1.22,2z"/>
   <path id="svg_63" fill="#fff" d="m221.05,187.25a9.75,9.75 0 0 1 -1.62,-1.72a10.62,10.62 0 0 1 -1.22,-2a10.17,10.17 0 0 1 1.62,1.73a10.05,10.05 0 0 1 1.22,1.99z"/>
   <path id="svg_64" fill="#fff" d="m196.62,144.8a10.11,10.11 0 0 1 -1.62,-1.72a10.93,10.93 0 0 1 -1.22,-2a9.75,9.75 0 0 1 1.62,1.72a10.93,10.93 0 0 1 1.22,2z"/>
   <path id="svg_65" fill="#fff" d="m197.05,195.73a10.17,10.17 0 0 1 -1.62,-1.73a10.54,10.54 0 0 1 -1.22,-2a9.75,9.75 0 0 1 1.62,1.72a10.42,10.42 0 0 1 1.22,2.01z"/>
   <path id="svg_66" fill="#fff" d="m201.2,165.69a10.53,10.53 0 0 1 -1.61,-1.73a9.43,9.43 0 0 1 -1.22,-2a10.11,10.11 0 0 1 1.61,1.73a9.68,9.68 0 0 1 1.22,2z"/>
   <path id="svg_67" fill="#eb9481" d="m221.73,140.75c-3.77,-0.7 -7.31,-8.49 -7.76,-13.73c0,-0.36 1.76,-3.21 3.77,-6.78c1.22,-2.17 2.51,-4.62 3.54,-6.94c0.21,-0.47 1.44,1.12 1.44,1.12l2.68,2l8.85,6.79a40.34,40.34 0 0 0 -5.33,8.27a5,5 0 0 0 -0.32,1a1.22,1.22 0 0 0 0,0.17c-0.55,1.98 -3.24,8.77 -6.87,8.1z"/>
   <path id="svg_68" fill="#263238" d="m228.6,132.53a1.22,1.22 0 0 0 0,0.17a9.91,9.91 0 0 1 -1.53,-0.59c-9.69,-4.54 -5.42,-17.52 -5.42,-17.52l3.8,1.88l8.85,6.79a40.34,40.34 0 0 0 -5.33,8.27a5,5 0 0 0 -0.37,1z"/>
   <path id="svg_69" fill="#263238" d="m244.42,95.58s4.43,2.81 4.45,7.81s-2,9.89 -2.42,10.07s-2.03,-17.88 -2.03,-17.88z"/>
   <path id="svg_70" fill="#eb9481" d="m222.44,98.18c-2.66,5.25 -2.52,21.8 0.8,26.06c4.82,6.18 14.1,8.31 19.71,2.2c5.43,-5.92 4.87,-27.48 1,-31.5c-5.63,-5.94 -17.57,-4.53 -21.51,3.24z"/>
   <path id="svg_71" stroke-width="0px" stroke-linejoin="round" stroke-linecap="round" stroke="#f5a79e" fill="none" d="m222.87,124l0,0"/>
   <path id="svg_72" fill="#263238" d="m236.56,111.43s-0.09,0.06 -0.08,0.1c0.06,1.13 -0.06,2.43 -1.07,2.83c0,0 0,0.07 0,0.06c1.25,-0.2 1.39,-1.93 1.15,-2.99z"/>
   <path id="svg_73" fill="#263238" d="m235.53,110.28c-1.82,-0.1 -1.88,3.54 -0.19,3.63s1.71,-3.55 0.19,-3.63z"/>
   <path id="svg_74" fill="#263238" d="m242.73,111.39s0.09,0 0.09,0.1c-0.06,1.13 0.07,2.43 1.09,2.82c0,0 0,0.07 0,0.06c-1.26,-0.19 -1.41,-1.92 -1.18,-2.98z"/>
   <path id="svg_75" fill="#263238" d="m243.76,110.23c1.81,-0.11 1.9,3.53 0.22,3.63s-1.74,-3.54 -0.22,-3.63z"/>
   <path id="svg_76" fill="#263238" d="m234.39,107.51a14.64,14.64 0 0 0 1.41,-0.48a2.4,2.4 0 0 0 1.36,-0.76a0.77,0.77 0 0 0 -0.11,-0.93a1.91,1.91 0 0 0 -1.92,-0.23a2.83,2.83 0 0 0 -1.64,1.19a0.83,0.83 0 0 0 0.9,1.21z"/>
   <path id="svg_77" fill="#263238" d="m245,109.12a14.65,14.65 0 0 1 -1.44,-0.4a2.4,2.4 0 0 1 -1.39,-0.69a0.75,0.75 0 0 1 0.06,-0.93a1.89,1.89 0 0 1 1.9,-0.33a2.8,2.8 0 0 1 1.7,1.1a0.82,0.82 0 0 1 -0.83,1.25z"/>
   <path id="svg_78" fill="#263238" d="m234,122.12c0.27,0.27 0.53,0.63 0.94,0.67a3,3 0 0 0 1.22,-0.26s0.07,0 0,0.06a1.51,1.51 0 0 1 -1.44,0.59a1.21,1.21 0 0 1 -0.88,-1a0.06,0.06 0 0 1 0.16,-0.06z"/>
   <path id="svg_79" fill="#263238" d="m240.54,117.3s0.05,1.68 0,2.47a16.48,16.48 0 0 0 -4.61,0.16c-0.36,0.08 -0.32,-0.21 0.09,-0.4a6.76,6.76 0 0 1 3.92,-0.52c0.08,-0.21 -0.13,-2.6 0,-2.59a6.68,6.68 0 0 1 1.74,0.6c0,-3.52 -0.56,-7 -0.51,-10.52c0,-0.12 0.19,-0.14 0.21,0a56.64,56.64 0 0 1 1,11.3c0.01,0.43 -1.54,-0.34 -1.84,-0.5z"/>
   <path id="svg_80" fill="#263238" d="m238.29,119.17a5,5 0 0 1 -2.1,2.51c-1.51,0.61 -2,-0.76 -0.48,-2a4.88,4.88 0 0 1 2.58,-0.51z"/>
   <path id="svg_81" fill="#ff99ba" d="m236.72,121.37a2,2 0 0 1 -0.53,0.31c-1.39,0.56 -1.94,-0.55 -0.82,-1.67c0.76,0.06 1.63,0.34 1.35,1.36z"/>
   <path id="svg_82" fill="#263238" d="m221.68,112.33c1.83,0.56 3.93,-4.94 4.53,-7c0.52,-1.86 1.12,-7.77 1.21,-8.18s8,5.23 12.58,3.89s7.69,-5.49 7.76,-7.42s-5.66,-6.83 -10.61,-7.08s-11.66,6 -11.66,6a23,23 0 0 0 2.2,-2.94c-0.08,-0.22 -3.28,1.06 -3.87,3.34c0,0 0.64,-2.87 0.4,-2.92s-2.73,2.4 -2.17,4.26c0,0 -2.88,2.49 -3.14,5.22s0.62,12.17 2.77,12.83z"/>
   <path id="svg_83" fill="#263238" d="m243.28,100a15.21,15.21 0 0 1 -4.35,1.56a10.33,10.33 0 0 1 -5,-0.8a15.36,15.36 0 0 1 -4.36,-2.58c-1.15,-0.94 -2.18,-2.09 -3.41,-2.93c-0.31,-0.22 -0.66,0.23 -0.47,0.51a16.52,16.52 0 0 0 8.36,6.16a9.53,9.53 0 0 0 9.22,-1.88s0.03,-0.04 0.01,-0.04z"/>
   <path id="svg_84" fill="#eb9481" d="m223.59,111.84s-2.84,-5.76 -5.4,-4.83s-1,8.9 1.63,10.36a2.85,2.85 0 0 0 4,-0.94l-0.23,-4.59z"/>
   <path id="svg_85" fill="#263238" d="m218.7,109.28s-0.06,0 0,0.08c1.82,1.08 2.56,3 3,5a1.57,1.57 0 0 0 -2.26,-0.78c-0.06,0 0,0.11 0,0.11a1.75,1.75 0 0 1 1.81,0.9a8.45,8.45 0 0 1 0.68,1.68c0.06,0.19 0.39,0.14 0.36,-0.07l0,0c0.43,-2.49 -0.97,-6.26 -3.59,-6.92z"/>
   <path id="svg_86" fill="#eb9481" d="m204.84,137.56c-2,11.33 10.28,49.5 18.15,56.63c11.71,10.6 33.36,17.57 41.21,19.84c3.42,1 12.88,-23.07 9.42,-24.66c-7.41,-3.37 -30.43,-10.57 -32.62,-12.37s-15.39,-20.87 -21.27,-31.85c-7.87,-14.78 -13.9,-13.32 -14.89,-7.59z"/>
   <path id="svg_87" fill="#eb9481" d="m267.79,187.25s10.22,2.61 16.81,4.62c3.68,1.13 9.82,3.62 12.15,5.68c3.48,3.09 16.06,18.21 12.46,21.34c-3.26,2.84 -12.42,-11.53 -12.42,-11.53s10.52,13.68 6,16.37s-12.79,-14.92 -12.79,-14.92s10.49,14.3 5.36,16.33c-3.88,1.53 -12.2,-14 -12.2,-14s8.94,12.35 5,14.1c-4.34,1.94 -12.91,-11.92 -12.91,-11.92c-10.72,2.77 -17,-0.3 -21.13,-3c-0.97,-0.66 13.67,-23.07 13.67,-23.07z"/>
   <path id="svg_88" fill="#263238" d="m293.45,202.39c1.3,1.56 2.62,3.14 3.77,4.81s2.24,3.39 3.23,5.16a34.62,34.62 0 0 1 3.2,7.26c-1.72,-4.4 -5.75,-10.45 -6.9,-12.12s-2.22,-3.4 -3.36,-5.07c-0.03,-0.04 0.03,-0.08 0.06,-0.04z"/>
   <path id="svg_89" fill="#263238" d="m287.34,206.44c2.22,1.76 6.87,8.3 8.66,12.69c0.08,0.18 0,0.17 -0.13,0c-1.4,-2.17 -7.08,-10.57 -8.58,-12.66c-0.03,-0.03 0.02,-0.06 0.05,-0.03z"/>
   <path id="svg_90" fill="#263238" d="m281.47,209a31.33,31.33 0 0 1 6.42,10c0.07,0.18 -0.07,0.15 -0.18,0c-2.07,-3.37 -3.67,-6 -6.35,-9.91c-0.04,-0.09 0.05,-0.18 0.11,-0.09z"/>
   <path id="svg_91" fill="#101C5D" d="m216,138.39c-9.13,-12.91 -14.59,-8.13 -12.76,5.89c1.72,13.11 6.31,28.73 6.31,28.73l23,-11.16s-10.74,-15.19 -16.55,-23.46z"/>
   <path id="svg_92" fill="#fff" d="m221.55,143.47a10.28,10.28 0 0 1 0.65,2.27a10.39,10.39 0 0 1 0.15,2.37a10.34,10.34 0 0 1 -0.64,-2.28a9.77,9.77 0 0 1 -0.16,-2.36z"/>
   <path id="svg_93" fill="#fff" d="m207.92,151.32a11,11 0 0 1 4.63,-0.8a10.26,10.26 0 0 1 -2.27,0.64a9.8,9.8 0 0 1 -2.36,0.16z"/>
   <path id="svg_94" fill="#fff" d="m208.51,131.24a11.16,11.16 0 0 1 -2.71,3.85a11.16,11.16 0 0 1 2.71,-3.85z"/>
   <path id="svg_95" fill="#fff" d="m228,157.35a10.44,10.44 0 0 1 -1.15,2.07a10.11,10.11 0 0 1 -1.56,1.78a11.16,11.16 0 0 1 2.71,-3.85z"/>
   <path id="svg_96" fill="#fff" d="m212,165.18a10,10 0 0 1 -2.07,-1.15a10.06,10.06 0 0 1 -1.78,-1.56a11.16,11.16 0 0 1 3.85,2.71z"/>
   <path id="svg_97" fill="#263238" d="m219,142.28c1.23,1.69 2.5,3.34 3.76,5q-0.48,-1.26 -0.84,-2.55a0,0 0 1 1 0.06,0c0.25,0.66 0.54,1.31 0.78,2l0.36,1a1.8,1.8 0 0 1 0.08,0.21c1,1.29 2,2.58 2.92,3.9c1.13,1.58 2.22,3.18 3.32,4.78s2.21,3.59 3.4,5.2c0.11,0.14 -2,1 -2.23,1.11s-0.35,-0.08 -0.13,-0.15s1.9,-1.1 1.92,-1.12c-1.1,-1.62 -2.37,-3.11 -3.52,-4.68s-2.29,-3.14 -3.4,-4.73c-2.25,-3.24 -4.31,-6.6 -6.55,-9.85a0,0 0 0 1 0.07,-0.12z"/>
   <path id="svg_98" fill="#263238" d="m203.78,153.56c0.35,0.68 0.73,1.35 1,2.05l0.38,0.87c-0.53,-2.49 -1,-5 -1.55,-7.49c0,0 0,0 0,0c1.06,4 2.13,8.09 3.11,12.15c0.93,3.88 2.06,7.8 2.6,11.76a13.05,13.05 0 0 1 2.16,-0.73a10.66,10.66 0 0 1 -2.38,1.15a124.82,124.82 0 0 1 -3,-12.24c-0.25,-1.12 -0.48,-2.24 -0.72,-3.36c-0.26,-0.68 -0.57,-1.33 -0.88,-2s-0.59,-1.42 -0.87,-2.13c0.06,-0.04 0.13,-0.08 0.15,-0.03z"/>
   <path id="svg_99" fill="#263238" d="m209.89,169.15c3.2,-1.8 16.57,-8.72 19.56,-10c0.21,-0.09 0.32,0 0.11,0.14a201.57,201.57 0 0 1 -19.6,10c-0.08,0.02 -0.16,-0.09 -0.07,-0.14z"/>
  </g>
  <g id="freepik--Folder--inject-9">
   <polygon id="svg_100" fill="#101C5D" points="576.32 432.05 271.64 432.05 315.69 182.2 620.37 182.2 576.32 432.05"/>
   <polygon id="svg_101" fill="#101C5D" points="419.97 156.32 320.26 156.32 315.69 182.2 422.4 182.2 419.97 156.32"/>
   <g id="svg_102" opacity="0.1">
    <polygon id="svg_103" points="576.32 432.05 271.64 432.05 315.69 182.2 620.37 182.2 576.32 432.05"/>
    <polygon id="svg_104" points="419.97 156.32 320.26 156.32 315.69 182.2 422.4 182.2 419.97 156.32"/>
   </g>
   <path id="svg_105" fill="#263238" d="m309.5,166.88a19.17,19.17 0 0 1 0,-8.7a19.17,19.17 0 0 1 0,8.7z"/>
   <path id="svg_106" fill="#263238" d="m300.64,169.44a17,17 0 0 1 -2.61,-3.52a17.35,17.35 0 0 1 -1.75,-4a16.58,16.58 0 0 1 2.61,3.51a17.61,17.61 0 0 1 1.75,4.01z"/>
   <path id="svg_107" fill="#263238" d="m294.24,176.09a19.18,19.18 0 0 1 -7.53,-4.35a17.16,17.16 0 0 1 4,1.74a17.58,17.58 0 0 1 3.53,2.61z"/>
   <path id="svg_108" fill="#263238" d="m292,185.05a19.17,19.17 0 0 1 -8.7,0a19.17,19.17 0 0 1 8.7,0z"/>
   <path id="svg_109" fill="#263238" d="m294.6,193.91a17.64,17.64 0 0 1 -3.52,2.61a17.16,17.16 0 0 1 -4,1.74a17,17 0 0 1 3.52,-2.61a16.8,16.8 0 0 1 4,-1.74z"/>
   <path id="svg_110" fill="#263238" d="m301.24,200.3a19.13,19.13 0 0 1 -4.35,7.54a16.83,16.83 0 0 1 1.75,-4a17.31,17.31 0 0 1 2.6,-3.54z"/>
   <path id="svg_111" fill="#263238" d="m310.2,202.51a17.45,17.45 0 0 1 0.5,4.35a17,17 0 0 1 -0.5,4.35a16.57,16.57 0 0 1 -0.5,-4.35a17.45,17.45 0 0 1 0.5,-4.35z"/>
   <path id="svg_112" fill="#263238" d="m319.06,200a17,17 0 0 1 2.61,3.52a16.8,16.8 0 0 1 1.74,4a19.13,19.13 0 0 1 -4.35,-7.54l0,0.02z"/>
   <path id="svg_113" fill="#263238" d="m325.45,193.3a16.8,16.8 0 0 1 4,1.74a17,17 0 0 1 3.52,2.61a16.8,16.8 0 0 1 -4,-1.74a17,17 0 0 1 -3.52,-2.61z"/>
   <path id="svg_114" fill="#263238" d="m327.66,184.34a19.22,19.22 0 0 1 8.71,0a19.22,19.22 0 0 1 -8.71,0z"/>
   <path id="svg_115" fill="#263238" d="m325.1,175.48a17.31,17.31 0 0 1 3.52,-2.6a16.44,16.44 0 0 1 4,-1.75a19.13,19.13 0 0 1 -7.54,4.35l0.02,0z"/>
   <path id="svg_116" fill="#263238" d="m318.45,169.09a17.58,17.58 0 0 1 1.74,-4a17,17 0 0 1 2.61,-3.52a16.8,16.8 0 0 1 -1.74,4a17,17 0 0 1 -2.61,3.52z"/>
   <polygon id="svg_117" fill="#101C5D" points="575.87 432.05 270.54 432.05 227.18 191.27 532.52 191.27 575.87 432.05"/>
   <circle stroke="#101C5D" id="svg_118" fill="#ffffff" r="12.69" cy="325.77" cx="332.99"/>
   <circle id="svg_119" fill="#ffffff" r="12.69" cy="325.77" cx="433.31"/>
   <path id="svg_120" fill="#ffffff" d="m401.38,349.49l-0.7,-1.33c-0.06,-0.12 -6.62,-12.24 -19.81,-12.24c-12,0 -15,11.41 -15.08,11.9l-0.36,1.45l-2.91,-0.7l0.35,-1.46c0,-0.14 3.58,-14.19 18,-14.19c15,0 22.17,13.28 22.47,13.85l0.7,1.32l-2.66,1.4z"/>
  </g>
  <g id="freepik--speech-bubble--inject-9">
   <path id="svg_137" fill="#fff" d="m314.31,95.32a24.92,24.92 0 0 1 -41.64,15.77l-12.47,1.83l6.24,-10.78a24.92,24.92 0 1 1 47.87,-6.82z"/>
   <path id="svg_138" fill="#263238" d="m314.31,95.32a25,25 0 0 1 -5,12.63a22.11,22.11 0 0 1 -4.89,4.83a24.26,24.26 0 0 1 -6,3.35a24.53,24.53 0 0 1 -6.71,1.6a25,25 0 0 1 -3.46,0.07a22.18,22.18 0 0 1 -3.45,-0.36a25.16,25.16 0 0 1 -12.33,-6.09l0.29,0.09l-12.45,1.91l-0.91,0.14l0.46,-0.8l6.2,-10.8l0,0.43a25.18,25.18 0 0 1 1.54,-22.21a25.54,25.54 0 0 1 7.8,-8.32a25.37,25.37 0 0 1 21.91,-3a25.53,25.53 0 0 1 9.61,5.9a25,25 0 0 1 7.39,20.63zm0,0a24.65,24.65 0 0 0 -28.26,-27a24.38,24.38 0 0 0 -10.29,4.06a25.69,25.69 0 0 0 -7.46,8.14a24.62,24.62 0 0 0 -3.17,10.54a24.87,24.87 0 0 0 1.76,10.94l0.09,0.22l-0.12,0.21l-6.28,10.76l-0.44,-0.66l12.48,-1.75l0.17,0l0.12,0.11a24.56,24.56 0 0 0 11.94,6.11a21.23,21.23 0 0 0 3.38,0.41a24.26,24.26 0 0 0 3.41,0a25,25 0 0 0 6.66,-1.47a23.44,23.44 0 0 0 6,-3.24a22.78,22.78 0 0 0 4.9,-4.77a25,25 0 0 0 5.11,-12.61z"/>
   <path id="svg_139" fill="#101C5D" d="m277.34,104.35a2.42,2.42 0 0 1 2.44,-2.56a2.56,2.56 0 0 1 0,5.12a2.42,2.42 0 0 1 -2.44,-2.56zm1,-5.91l-0.58,-19.84l4,0l-0.58,19.84l-2.84,0z"/>
   <path id="svg_140" fill="#101C5D" d="m286.85,104.35a2.42,2.42 0 0 1 2.43,-2.56a2.56,2.56 0 0 1 0,5.12a2.42,2.42 0 0 1 -2.43,-2.56zm1,-5.91l-0.55,-19.84l4,0l-0.58,19.84l-2.87,0z"/>
   <path id="svg_141" fill="#101C5D" d="m296.35,104.35a2.42,2.42 0 0 1 2.44,-2.56a2.56,2.56 0 0 1 0,5.12a2.42,2.42 0 0 1 -2.44,-2.56zm1,-5.91l-0.58,-19.84l4,0l-0.57,19.84l-2.85,0z"/>
  </g>
 </g>
</svg>